<?xml version="1.0" encoding="UTF-8" standalone="no"?>
<!DOCTYPE svg PUBLIC "-//W3C//DTD SVG 1.1//EN"
 "http://www.w3.org/Graphics/SVG/1.1/DTD/svg11.dtd">
<!-- Generated by graphviz version 14.1.3 (20260303.0454)
 -->
<!-- Pages: 1 -->
<svg width="1043pt" height="127pt"
 viewBox="0.00 0.00 1043.00 127.00" xmlns="http://www.w3.org/2000/svg" xmlns:xlink="http://www.w3.org/1999/xlink">
<g id="graph0" class="graph" transform="scale(1 1) rotate(0) translate(4 123)">
<polygon fill="white" stroke="none" points="-4,4 -4,-123 1038.88,-123 1038.88,4 -4,4"/>
<!-- 2466228818512 -->
<g id="node1" class="node">
<title>2466228818512</title>
<polygon fill="none" stroke="black" points="574,-54.5 574,-90.5 735,-90.5 735,-54.5 574,-54.5"/>
<text xml:space="preserve" text-anchor="middle" x="613.88" y="-67.7" font-family="Times New Roman,serif" font-size="14.00">data 3.0000</text>
<polyline fill="none" stroke="black" points="653.75,-55 653.75,-90.5"/>
<text xml:space="preserve" text-anchor="middle" x="694.38" y="-67.7" font-family="Times New Roman,serif" font-size="14.00">grad 1.0000</text>
</g>
<!-- 2466228829840ReLU -->
<g id="node4" class="node">
<title>2466228829840ReLU</title>
<ellipse fill="none" stroke="black" cx="804.44" cy="-72.5" rx="33.44" ry="18"/>
<text xml:space="preserve" text-anchor="middle" x="804.44" y="-67.45" font-family="Times New Roman,serif" font-size="14.00">ReLU</text>
</g>
<!-- 2466228818512&#45;&gt;2466228829840ReLU -->
<g id="edge6" class="edge">
<title>2466228818512&#45;&gt;2466228829840ReLU</title>
<path fill="none" stroke="black" d="M735.1,-72.5C743.46,-72.5 751.72,-72.5 759.45,-72.5"/>
<polygon fill="black" stroke="black" points="759.21,-76 769.21,-72.5 759.21,-69 759.21,-76"/>
</g>
<!-- 2466228818512+ -->
<g id="node2" class="node">
<title>2466228818512+</title>
<ellipse fill="none" stroke="black" cx="511" cy="-72.5" rx="27" ry="18"/>
<text xml:space="preserve" text-anchor="middle" x="511" y="-67.45" font-family="Times New Roman,serif" font-size="14.00">+</text>
</g>
<!-- 2466228818512+&#45;&gt;2466228818512 -->
<g id="edge1" class="edge">
<title>2466228818512+&#45;&gt;2466228818512</title>
<path fill="none" stroke="black" d="M538.28,-72.5C545.4,-72.5 553.52,-72.5 562.08,-72.5"/>
<polygon fill="black" stroke="black" points="562.04,-76 572.04,-72.5 562.04,-69 562.04,-76"/>
</g>
<!-- 2466228829840 -->
<g id="node3" class="node">
<title>2466228829840</title>
<polygon fill="none" stroke="black" points="873.88,-54.5 873.88,-90.5 1034.88,-90.5 1034.88,-54.5 873.88,-54.5"/>
<text xml:space="preserve" text-anchor="middle" x="913.75" y="-67.7" font-family="Times New Roman,serif" font-size="14.00">data 3.0000</text>
<polyline fill="none" stroke="black" points="953.63,-55 953.63,-90.5"/>
<text xml:space="preserve" text-anchor="middle" x="994.25" y="-67.7" font-family="Times New Roman,serif" font-size="14.00">grad 1.0000</text>
</g>
<!-- 2466228829840ReLU&#45;&gt;2466228829840 -->
<g id="edge2" class="edge">
<title>2466228829840ReLU&#45;&gt;2466228829840</title>
<path fill="none" stroke="black" d="M838.27,-72.5C845.61,-72.5 853.74,-72.5 862.19,-72.5"/>
<polygon fill="black" stroke="black" points="861.93,-76 871.93,-72.5 861.93,-69 861.93,-76"/>
</g>
<!-- 2466228828432 -->
<g id="node5" class="node">
<title>2466228828432</title>
<polygon fill="none" stroke="black" points="287,-82.5 287,-118.5 448,-118.5 448,-82.5 287,-82.5"/>
<text xml:space="preserve" text-anchor="middle" x="326.88" y="-95.7" font-family="Times New Roman,serif" font-size="14.00">data 1.0000</text>
<polyline fill="none" stroke="black" points="366.75,-83 366.75,-118.5"/>
<text xml:space="preserve" text-anchor="middle" x="407.38" y="-95.7" font-family="Times New Roman,serif" font-size="14.00">grad 1.0000</text>
</g>
<!-- 2466228828432&#45;&gt;2466228818512+ -->
<g id="edge8" class="edge">
<title>2466228828432&#45;&gt;2466228818512+</title>
<path fill="none" stroke="black" d="M448.35,-84.7C457.09,-82.97 465.64,-81.28 473.46,-79.73"/>
<polygon fill="black" stroke="black" points="474.08,-83.18 483.21,-77.8 472.72,-76.31 474.08,-83.18"/>
</g>
<!-- 2466228825936 -->
<g id="node6" class="node">
<title>2466228825936</title>
<polygon fill="none" stroke="black" points="0,-55.5 0,-91.5 161,-91.5 161,-55.5 0,-55.5"/>
<text xml:space="preserve" text-anchor="middle" x="39.88" y="-68.7" font-family="Times New Roman,serif" font-size="14.00">data 2.0000</text>
<polyline fill="none" stroke="black" points="79.75,-56 79.75,-91.5"/>
<text xml:space="preserve" text-anchor="middle" x="120.38" y="-68.7" font-family="Times New Roman,serif" font-size="14.00">grad 1.0000</text>
</g>
<!-- 2466228828560* -->
<g id="node9" class="node">
<title>2466228828560*</title>
<ellipse fill="none" stroke="black" cx="224" cy="-45.5" rx="27" ry="18"/>
<text xml:space="preserve" text-anchor="middle" x="224" y="-40.45" font-family="Times New Roman,serif" font-size="14.00">*</text>
</g>
<!-- 2466228825936&#45;&gt;2466228828560* -->
<g id="edge5" class="edge">
<title>2466228825936&#45;&gt;2466228828560*</title>
<path fill="none" stroke="black" d="M161.35,-57.7C170.09,-55.97 178.64,-54.28 186.46,-52.73"/>
<polygon fill="black" stroke="black" points="187.08,-56.18 196.21,-50.8 185.72,-49.31 187.08,-56.18"/>
</g>
<!-- 2466228322128 -->
<g id="node7" class="node">
<title>2466228322128</title>
<polygon fill="none" stroke="black" points="0,-0.5 0,-36.5 161,-36.5 161,-0.5 0,-0.5"/>
<text xml:space="preserve" text-anchor="middle" x="39.88" y="-13.7" font-family="Times New Roman,serif" font-size="14.00">data 1.0000</text>
<polyline fill="none" stroke="black" points="79.75,-1 79.75,-36.5"/>
<text xml:space="preserve" text-anchor="middle" x="120.38" y="-13.7" font-family="Times New Roman,serif" font-size="14.00">grad 2.0000</text>
</g>
<!-- 2466228322128&#45;&gt;2466228828560* -->
<g id="edge4" class="edge">
<title>2466228322128&#45;&gt;2466228828560*</title>
<path fill="none" stroke="black" d="M161.35,-33.74C170.09,-35.4 178.64,-37.04 186.46,-38.53"/>
<polygon fill="black" stroke="black" points="185.73,-41.95 196.21,-40.39 187.04,-35.08 185.73,-41.95"/>
</g>
<!-- 2466228828560 -->
<g id="node8" class="node">
<title>2466228828560</title>
<polygon fill="none" stroke="black" points="287,-27.5 287,-63.5 448,-63.5 448,-27.5 287,-27.5"/>
<text xml:space="preserve" text-anchor="middle" x="326.88" y="-40.7" font-family="Times New Roman,serif" font-size="14.00">data 2.0000</text>
<polyline fill="none" stroke="black" points="366.75,-28 366.75,-63.5"/>
<text xml:space="preserve" text-anchor="middle" x="407.38" y="-40.7" font-family="Times New Roman,serif" font-size="14.00">grad 1.0000</text>
</g>
<!-- 2466228828560&#45;&gt;2466228818512+ -->
<g id="edge7" class="edge">
<title>2466228828560&#45;&gt;2466228818512+</title>
<path fill="none" stroke="black" d="M448.35,-60.74C457.09,-62.4 465.64,-64.04 473.46,-65.53"/>
<polygon fill="black" stroke="black" points="472.73,-68.95 483.21,-67.39 474.04,-62.08 472.73,-68.95"/>
</g>
<!-- 2466228828560*&#45;&gt;2466228828560 -->
<g id="edge3" class="edge">
<title>2466228828560*&#45;&gt;2466228828560</title>
<path fill="none" stroke="black" d="M251.28,-45.5C258.4,-45.5 266.52,-45.5 275.08,-45.5"/>
<polygon fill="black" stroke="black" points="275.04,-49 285.04,-45.5 275.04,-42 275.04,-49"/>
</g>
</g>
</svg>
